<svg width="111" height="24" viewBox="0 0 111 24" fill="none" xmlns="http://www.w3.org/2000/svg">
<path d="M1.33418 23.8293C0.982538 23.8293 0.70329 23.761 0.49644 23.6245C0.310275 23.4879 0.175823 23.3058 0.0930825 23.0782C0.0310275 22.8279 0 22.5434 0 22.2247V1.43385C0 1.13798 0.04137 0.887623 0.12411 0.682787C0.20685 0.47795 0.351645 0.318633 0.558495 0.204835C0.786031 0.068278 1.09631 0 1.48932 0C1.94439 0 2.26501 0.045519 2.45117 0.136558C2.63734 0.227596 2.8235 0.386914 3.00967 0.614509L14.676 18.7767V1.43385C14.676 1.13798 14.707 0.887623 14.7691 0.682787C14.8518 0.47795 14.9966 0.318633 15.2035 0.204835C15.4103 0.068278 15.7103 0 16.1033 0C16.4756 0 16.7549 0.068278 16.941 0.204835C17.1479 0.341392 17.2823 0.534849 17.3444 0.785206C17.4271 1.0128 17.4685 1.27454 17.4685 1.57041V22.2589C17.4685 22.5548 17.4168 22.8279 17.3134 23.0782C17.2306 23.3058 17.0755 23.4879 16.8479 23.6245C16.6411 23.761 16.3412 23.8293 15.9481 23.8293C15.6172 23.8293 15.3379 23.7838 15.1104 23.6927C14.9036 23.6017 14.707 23.431 14.5209 23.1807L2.79248 5.15505V22.2589C2.79248 22.5548 2.75111 22.8279 2.66837 23.0782C2.58563 23.3058 2.44083 23.4879 2.23398 23.6245C2.02713 23.761 1.7272 23.8293 1.33418 23.8293Z" fill="#32317F"/>
<path d="M28.6697 24C27.4286 24 26.3219 23.7724 25.3497 23.3172C24.3775 22.862 23.5501 22.2475 22.8675 21.4737C22.2056 20.6771 21.6988 19.7667 21.3472 18.7425C20.9955 17.7183 20.8197 16.6145 20.8197 15.431C20.8197 13.8606 21.1507 12.4609 21.8126 11.2319C22.4745 10.0028 23.3847 9.03556 24.543 8.33001C25.7221 7.60171 27.0666 7.23755 28.5766 7.23755C29.6108 7.23755 30.5313 7.41963 31.338 7.78378C32.1654 8.12518 32.8687 8.59175 33.4479 9.1835C34.0271 9.77525 34.4718 10.4353 34.7821 11.1636C35.0924 11.8919 35.2475 12.6202 35.2475 13.3485C35.2475 14.5092 34.9993 15.3286 34.5028 15.8065C34.0064 16.2617 33.3962 16.4893 32.6722 16.4893H23.7053C23.6846 17.4908 23.9225 18.3556 24.4189 19.0839C24.936 19.7895 25.5773 20.3357 26.3426 20.7226C27.1286 21.1095 27.9147 21.303 28.7007 21.303C29.2799 21.303 29.7763 21.2688 30.19 21.2006C30.6037 21.1323 30.9657 21.0413 31.276 20.9275C31.5863 20.8137 31.8552 20.6999 32.0827 20.5861C32.3102 20.4723 32.5067 20.3585 32.6722 20.2447C32.8584 20.1309 33.0342 20.0512 33.1997 20.0057C33.3859 19.9602 33.5617 19.9829 33.7272 20.074C33.9133 20.1422 34.0581 20.2902 34.1615 20.5178C34.2857 20.6999 34.3684 20.8706 34.4098 21.0299C34.4511 21.1892 34.4718 21.3599 34.4718 21.542C34.4718 21.8606 34.2236 22.2134 33.7272 22.6003C33.2307 22.9872 32.5378 23.3172 31.6483 23.5903C30.7795 23.8634 29.7867 24 28.6697 24ZM23.7053 14.4751H31.4932C31.8862 14.4751 32.1758 14.4182 32.3619 14.3044C32.5688 14.1906 32.6722 13.8834 32.6722 13.3826C32.6722 12.7454 32.4964 12.1764 32.1448 11.6757C31.7931 11.1522 31.307 10.7312 30.6865 10.4125C30.0866 10.0939 29.3936 9.93456 28.6076 9.93456C27.6975 9.93456 26.8597 10.1394 26.0944 10.5491C25.3497 10.936 24.7602 11.4708 24.3258 12.1536C23.8914 12.8364 23.6846 13.6102 23.7053 14.4751Z" fill="#32317F"/>
<path d="M49.6145 7.54481C49.9041 7.79516 50.1006 8.03414 50.204 8.26174C50.3074 8.46657 50.3178 8.70555 50.235 8.97866C50.1523 9.22902 49.9661 9.53627 49.6765 9.90042L39.8718 23.1807C39.6029 23.522 39.365 23.7496 39.1582 23.8634C38.9513 24 38.7445 24.0341 38.5376 23.9659C38.3515 23.8976 38.1239 23.7496 37.855 23.522C37.5861 23.2717 37.4 23.0441 37.2965 22.8393C37.2138 22.6117 37.2138 22.3727 37.2965 22.1223C37.4 21.872 37.5861 21.5647 37.855 21.2006L47.6597 7.92034C48.0734 7.41963 48.4044 7.14651 48.6526 7.10099C48.9008 7.03272 49.2215 7.18065 49.6145 7.54481ZM37.9171 7.54481C38.186 7.31721 38.4135 7.16927 38.5997 7.10099C38.8065 7.03272 39.003 7.06686 39.1892 7.20341C39.3754 7.33997 39.5926 7.57895 39.8408 7.92034L49.6455 21.2006C49.9351 21.5647 50.1213 21.872 50.204 22.1223C50.3074 22.3727 50.3074 22.6117 50.204 22.8393C50.1213 23.0441 49.9351 23.2717 49.6455 23.522C49.3973 23.7496 49.1697 23.8976 48.9629 23.9659C48.7767 24.0341 48.5802 24 48.3734 23.8634C48.1665 23.7496 47.9286 23.522 47.6597 23.1807L37.855 9.90042C37.5654 9.53627 37.3793 9.22902 37.2965 8.97866C37.2138 8.70555 37.2138 8.46657 37.2965 8.26174C37.4 8.03414 37.6068 7.79516 37.9171 7.54481Z" fill="#32317F"/>
<path d="M59.7338 23.8293C58.472 23.8293 57.4688 23.6472 56.7241 23.2831C55.9795 22.9189 55.4417 22.3272 55.1107 21.5078C54.8004 20.6885 54.6453 19.6188 54.6453 18.2987V10.5832L52.9698 10.6174C52.5561 10.6174 52.2665 10.5036 52.101 10.276C51.9355 10.0256 51.8528 9.62731 51.8528 9.08108C51.8528 8.55761 51.9459 8.19346 52.1321 7.98862C52.3182 7.76102 52.6182 7.64722 53.0319 7.64722L54.6453 7.68137V3.2091C54.6453 2.89047 54.6763 2.61735 54.7384 2.38976C54.8004 2.16216 54.9245 1.99146 55.1107 1.87767C55.2969 1.74111 55.5865 1.67283 55.9795 1.67283C56.3725 1.67283 56.6724 1.74111 56.8793 1.87767C57.0861 1.99146 57.2206 2.16216 57.2826 2.38976C57.3447 2.59459 57.3757 2.85633 57.3757 3.17496V7.68137C57.7067 7.68137 58.1307 7.68137 58.6478 7.68137C59.165 7.65861 59.6097 7.64722 59.982 7.64722C60.4371 7.62446 60.9542 7.62446 61.5334 7.64722C62.1126 7.64722 62.5573 7.65861 62.8676 7.68137V3.2091C62.8676 2.89047 62.8986 2.61735 62.9607 2.38976C63.0227 2.16216 63.1468 1.99146 63.333 1.87767C63.5192 1.74111 63.8088 1.67283 64.2018 1.67283C64.5948 1.67283 64.8844 1.74111 65.0705 1.87767C65.2774 1.99146 65.4118 2.16216 65.4739 2.38976C65.5566 2.59459 65.598 2.85633 65.598 3.17496V7.7155L68.5456 7.64722C68.8145 7.64722 69.0524 7.68136 69.2592 7.74964C69.4661 7.79516 69.6316 7.93172 69.7557 8.15932C69.8798 8.36415 69.9419 8.68279 69.9419 9.11522C69.9419 9.54765 69.8798 9.87767 69.7557 10.1053C69.6523 10.3329 69.4971 10.4808 69.2903 10.5491C69.1041 10.5946 68.8662 10.6174 68.5766 10.6174L65.598 10.5491V18.2987C65.598 19.0953 65.6704 19.6757 65.8152 20.0398C65.9807 20.404 66.2496 20.643 66.6219 20.7568C67.0149 20.8706 67.5321 20.9275 68.1733 20.9275C68.5042 20.9275 68.7732 20.9616 68.98 21.0299C69.1869 21.0981 69.342 21.2347 69.4454 21.4395C69.5488 21.6444 69.6006 21.9516 69.6006 22.3613C69.6006 22.7937 69.5385 23.1238 69.4144 23.3513C69.2903 23.5562 69.1248 23.6814 68.9179 23.7269C68.7111 23.7952 68.4732 23.8293 68.2043 23.8293C66.9218 23.8293 65.8876 23.6472 65.1016 23.2831C64.3155 22.9189 63.7467 22.3272 63.395 21.5078C63.0434 20.6885 62.8676 19.6188 62.8676 18.2987V10.5832C62.8262 10.5832 62.6297 10.5832 62.2781 10.5832C61.9471 10.5832 61.5644 10.5946 61.13 10.6174C60.7163 10.6174 60.3544 10.6174 60.0441 10.6174C59.6717 10.6174 59.227 10.6174 58.7099 10.6174C58.1928 10.5946 57.748 10.5718 57.3757 10.5491V18.2987C57.3757 19.0953 57.4378 19.6757 57.5619 20.0398C57.686 20.404 57.9135 20.643 58.2445 20.7568C58.5961 20.8706 59.0926 20.9275 59.7338 20.9275C60.0441 20.9275 60.3026 20.9616 60.5095 21.0299C60.7163 21.0981 60.8715 21.2347 60.9749 21.4395C61.099 21.6444 61.1611 21.9516 61.1611 22.3613C61.1611 22.7937 61.099 23.1238 60.9749 23.3513C60.8508 23.5562 60.6853 23.6814 60.4785 23.7269C60.2716 23.7952 60.0234 23.8293 59.7338 23.8293Z" fill="#32317F"/>
<path d="M79.3706 24C78.1295 24 77.0228 23.7724 76.0506 23.3172C75.0784 22.862 74.251 22.2475 73.5684 21.4737C72.9065 20.6771 72.3997 19.7667 72.0481 18.7425C71.6964 17.7183 71.5206 16.6145 71.5206 15.431C71.5206 13.8606 71.8516 12.4609 72.5135 11.2319C73.1754 10.0028 74.0856 9.03556 75.2439 8.33001C76.423 7.60171 77.7675 7.23755 79.2775 7.23755C80.3118 7.23755 81.2322 7.41963 82.039 7.78378C82.8664 8.12518 83.5696 8.59175 84.1488 9.1835C84.728 9.77525 85.1727 10.4353 85.483 11.1636C85.7933 11.8919 85.9484 12.6202 85.9484 13.3485C85.9484 14.5092 85.7002 15.3286 85.2038 15.8065C84.7073 16.2617 84.0971 16.4893 83.3731 16.4893H74.4062C74.3855 17.4908 74.6234 18.3556 75.1198 19.0839C75.6369 19.7895 76.2782 20.3357 77.0435 20.7226C77.8296 21.1095 78.6156 21.303 79.4016 21.303C79.9808 21.303 80.4772 21.2688 80.8909 21.2006C81.3046 21.1323 81.6666 21.0413 81.9769 20.9275C82.2872 20.8137 82.5561 20.6999 82.7836 20.5861C83.0112 20.4723 83.2077 20.3585 83.3731 20.2447C83.5593 20.1309 83.7351 20.0512 83.9006 20.0057C84.0868 19.9602 84.2626 19.9829 84.4281 20.074C84.6142 20.1422 84.759 20.2902 84.8625 20.5178C84.9866 20.6999 85.0693 20.8706 85.1107 21.0299C85.1521 21.1892 85.1727 21.3599 85.1727 21.542C85.1727 21.8606 84.9245 22.2134 84.4281 22.6003C83.9316 22.9872 83.2387 23.3172 82.3492 23.5903C81.4805 23.8634 80.4876 24 79.3706 24ZM74.4062 14.4751H82.1941C82.5871 14.4751 82.8767 14.4182 83.0629 14.3044C83.2697 14.1906 83.3731 13.8834 83.3731 13.3826C83.3731 12.7454 83.1973 12.1764 82.8457 11.6757C82.494 11.1522 82.0079 10.7312 81.3874 10.4125C80.7875 10.0939 80.0946 9.93456 79.3085 9.93456C78.3984 9.93456 77.5606 10.1394 76.7953 10.5491C76.0506 10.936 75.4611 11.4708 75.0267 12.1536C74.5924 12.8364 74.3855 13.6102 74.4062 14.4751Z" fill="#32317F"/>
<path d="M93.7375 24C93.2411 24 92.724 23.9431 92.1862 23.8293C91.6484 23.7155 91.1209 23.5562 90.6038 23.3513C90.1073 23.1238 89.6626 22.862 89.2696 22.5661C88.8973 22.2703 88.618 21.9403 88.4318 21.5761C88.3284 21.3485 88.2664 21.1437 88.2457 20.9616C88.225 20.7568 88.256 20.5633 88.3388 20.3812C88.4215 20.1991 88.5456 20.0171 88.7111 19.835C88.9179 19.5619 89.1248 19.4367 89.3316 19.4595C89.5385 19.4595 89.797 19.6074 90.1073 19.9033C90.3349 20.0626 90.6038 20.2447 90.914 20.4495C91.2243 20.6316 91.5449 20.8023 91.8759 20.9616C92.2068 21.0981 92.5378 21.2233 92.8688 21.3371C93.2204 21.4282 93.5617 21.4737 93.8927 21.4737C94.8442 21.4737 95.6095 21.2802 96.1887 20.8933C96.7679 20.4836 97.0575 19.9488 97.0575 19.2888C97.0575 18.9018 96.9851 18.5718 96.8403 18.2987C96.6955 18.0256 96.499 17.798 96.2508 17.6159C96.0026 17.4111 95.7233 17.2404 95.413 17.1038C95.1028 16.9673 94.7511 16.8421 94.3581 16.7283C93.9858 16.5917 93.6134 16.4666 93.2411 16.3528C92.6826 16.1935 92.1345 16.0114 91.5966 15.8065C91.0588 15.6017 90.5727 15.34 90.1383 15.0213C89.704 14.6799 89.3523 14.2589 89.0834 13.7582C88.8145 13.2347 88.6801 12.5747 88.6801 11.7781C88.6801 10.8449 88.8972 10.037 89.3316 9.35419C89.766 8.67141 90.3762 8.14794 91.1623 7.78378C91.9483 7.39687 92.8688 7.20341 93.9237 7.20341C94.3788 7.20341 94.8028 7.23755 95.1958 7.30583C95.5889 7.37411 95.9612 7.48791 96.3128 7.64722C96.6852 7.78378 97.0368 7.95448 97.3678 8.15932C97.6987 8.34139 98.0193 8.56899 98.3296 8.8421C98.7019 9.11522 98.8985 9.41109 98.9191 9.72973C98.9398 10.0484 98.8261 10.3784 98.5778 10.7198C98.3917 11.0156 98.1848 11.2091 97.9573 11.3001C97.7298 11.3684 97.5022 11.3001 97.2747 11.0953C96.9437 10.8222 96.5921 10.5832 96.2197 10.3784C95.8474 10.1735 95.4647 10.0028 95.0717 9.86629C94.6787 9.72973 94.2753 9.66145 93.8616 9.66145C93.3445 9.66145 92.8791 9.75249 92.4654 9.93456C92.0724 10.0939 91.7621 10.3442 91.5346 10.6856C91.3277 11.0043 91.2243 11.3684 91.2243 11.7781C91.2243 12.1422 91.3071 12.4381 91.4725 12.6657C91.6587 12.8933 91.8862 13.0868 92.1551 13.2461C92.4447 13.4054 92.7757 13.5533 93.148 13.6899C93.541 13.8037 93.9444 13.9175 94.3581 14.0313C94.958 14.1906 95.5682 14.3841 96.1887 14.6117C96.83 14.8165 97.3988 15.101 97.8952 15.4651C98.4124 15.8065 98.8261 16.2731 99.1363 16.8649C99.4673 17.4339 99.6328 18.1963 99.6328 19.1522C99.6328 20.6543 99.095 21.8378 98.0193 22.7027C96.9437 23.5676 95.5165 24 93.7375 24Z" fill="#32317F"/>
<path d="M109.262 23.8293C108.29 23.8293 107.463 23.7269 106.78 23.522C106.118 23.3172 105.57 22.9986 105.136 22.5661C104.701 22.1337 104.391 21.5761 104.205 20.8933C104.019 20.1878 103.926 19.3229 103.926 18.2987V3.2091C103.926 2.89047 103.957 2.61735 104.019 2.38976C104.081 2.16216 104.205 1.99146 104.391 1.87767C104.577 1.74111 104.867 1.67283 105.26 1.67283C105.653 1.67283 105.953 1.74111 106.16 1.87767C106.367 1.99146 106.501 2.16216 106.563 2.38976C106.625 2.59459 106.656 2.85633 106.656 3.17496V18.2987C106.656 18.8905 106.698 19.3684 106.78 19.7326C106.884 20.074 107.028 20.3357 107.215 20.5178C107.421 20.6999 107.69 20.8137 108.021 20.8592C108.352 20.9047 108.756 20.9275 109.231 20.9275C109.562 20.9275 109.831 20.9616 110.038 21.0299C110.245 21.0981 110.4 21.2347 110.504 21.4395C110.607 21.6444 110.659 21.9516 110.659 22.3613C110.659 22.7937 110.597 23.1238 110.473 23.3513C110.369 23.5562 110.204 23.6814 109.976 23.7269C109.769 23.7952 109.531 23.8293 109.262 23.8293ZM102.312 7.68137L105.291 7.7155L109.604 7.64722C109.893 7.64722 110.142 7.68136 110.348 7.74964C110.555 7.79516 110.71 7.93172 110.814 8.15932C110.938 8.36415 111 8.68279 111 9.11522C111 9.54765 110.948 9.87767 110.845 10.1053C110.741 10.3101 110.586 10.4467 110.379 10.5149C110.173 10.5832 109.924 10.6174 109.635 10.6174L105.384 10.5491L102.25 10.5832C101.816 10.5832 101.516 10.4694 101.35 10.2418C101.206 10.0142 101.133 9.63869 101.133 9.11522C101.133 8.61451 101.226 8.25036 101.412 8.02276C101.599 7.79516 101.899 7.68137 102.312 7.68137Z" fill="#32317F"/>
</svg>
