<svg width="171" height="48" viewBox="0 0 171 48" fill="none" xmlns="http://www.w3.org/2000/svg">
<rect width="48" height="48" rx="4.08511" fill="white"/>
<g clip-path="url(#clip0_413_2528)">
<path fill-rule="evenodd" clip-rule="evenodd" d="M32.6808 31.149L37.2766 36.766L32.6808 41.8724V38.3138H14.2979L17.8723 35.2182H32.6808V31.149Z" fill="#504DE2"/>
<path fill-rule="evenodd" clip-rule="evenodd" d="M31.1484 14.8085L36.7655 10.2128L41.8718 14.8085H38.3132V33.1915L35.2177 29.6171V14.8085H31.1484Z" fill="#828FF5"/>
<path fill-rule="evenodd" clip-rule="evenodd" d="M15.3192 16.3405L10.7234 10.7234L15.3192 5.61705V9.17564L33.7021 9.17564L30.1277 12.2712L15.3192 12.2712V16.3405Z" fill="#C8D3FD"/>
<path fill-rule="evenodd" clip-rule="evenodd" d="M16.8506 32.6809L11.2336 37.2766L6.12718 32.6809H9.68577L9.68577 14.2979L12.7814 17.8724L12.7814 32.6809H16.8506Z" fill="#3835A1"/>
</g>
<path d="M61.3342 35.8293C60.9825 35.8293 60.7033 35.761 60.4964 35.6245C60.3103 35.4879 60.1758 35.3058 60.0931 35.0782C60.031 34.8279 60 34.5434 60 34.2247V13.4339C60 13.138 60.0414 12.8876 60.1241 12.6828C60.2069 12.478 60.3516 12.3186 60.5585 12.2048C60.786 12.0683 61.0963 12 61.4893 12C61.9444 12 62.265 12.0455 62.4512 12.1366C62.6373 12.2276 62.8235 12.3869 63.0097 12.6145L74.676 30.7767V13.4339C74.676 13.138 74.707 12.8876 74.7691 12.6828C74.8518 12.478 74.9966 12.3186 75.2035 12.2048C75.4103 12.0683 75.7103 12 76.1033 12C76.4756 12 76.7549 12.0683 76.941 12.2048C77.1479 12.3414 77.2823 12.5348 77.3444 12.7852C77.4271 13.0128 77.4685 13.2745 77.4685 13.5704V34.2589C77.4685 34.5548 77.4168 34.8279 77.3134 35.0782C77.2306 35.3058 77.0755 35.4879 76.8479 35.6245C76.6411 35.761 76.3412 35.8293 75.9481 35.8293C75.6172 35.8293 75.3379 35.7838 75.1104 35.6927C74.9036 35.6017 74.707 35.431 74.5209 35.1807L62.7925 17.1551V34.2589C62.7925 34.5548 62.7511 34.8279 62.6684 35.0782C62.5856 35.3058 62.4408 35.4879 62.234 35.6245C62.0271 35.761 61.7272 35.8293 61.3342 35.8293Z" fill="#32317F"/>
<path d="M88.6697 36C87.4286 36 86.3219 35.7724 85.3497 35.3172C84.3775 34.862 83.5501 34.2475 82.8675 33.4737C82.2056 32.6771 81.6988 31.7667 81.3472 30.7425C80.9955 29.7183 80.8197 28.6145 80.8197 27.431C80.8197 25.8606 81.1507 24.4609 81.8126 23.2319C82.4745 22.0028 83.3846 21.0356 84.543 20.33C85.7221 19.6017 87.0666 19.2376 88.5766 19.2376C89.6108 19.2376 90.5313 19.4196 91.338 19.7838C92.1654 20.1252 92.8687 20.5917 93.4479 21.1835C94.0271 21.7752 94.4718 22.4353 94.7821 23.1636C95.0924 23.8919 95.2475 24.6202 95.2475 25.3485C95.2475 26.5092 94.9993 27.3286 94.5028 27.8065C94.0064 28.2617 93.3962 28.4893 92.6722 28.4893H83.7053C83.6846 29.4907 83.9225 30.3556 84.4189 31.0839C84.936 31.7895 85.5773 32.3357 86.3426 32.7226C87.1286 33.1095 87.9147 33.303 88.7007 33.303C89.2799 33.303 89.7763 33.2688 90.19 33.2006C90.6037 33.1323 90.9657 33.0413 91.276 32.9275C91.5863 32.8137 91.8552 32.6999 92.0827 32.5861C92.3102 32.4723 92.5067 32.3585 92.6722 32.2447C92.8584 32.1309 93.0342 32.0512 93.1997 32.0057C93.3859 31.9602 93.5617 31.9829 93.7272 32.074C93.9133 32.1422 94.0581 32.2902 94.1615 32.5178C94.2857 32.6999 94.3684 32.8706 94.4098 33.0299C94.4511 33.1892 94.4718 33.3599 94.4718 33.542C94.4718 33.8606 94.2236 34.2134 93.7272 34.6003C93.2307 34.9872 92.5378 35.3172 91.6483 35.5903C90.7795 35.8634 89.7867 36 88.6697 36ZM83.7053 26.4751H91.4932C91.8862 26.4751 92.1758 26.4182 92.3619 26.3044C92.5688 26.1906 92.6722 25.8834 92.6722 25.3826C92.6722 24.7454 92.4964 24.1764 92.1448 23.6757C91.7931 23.1522 91.307 22.7312 90.6865 22.4125C90.0866 22.0939 89.3937 21.9346 88.6076 21.9346C87.6975 21.9346 86.8597 22.1394 86.0944 22.5491C85.3497 22.936 84.7602 23.4708 84.3258 24.1536C83.8914 24.8364 83.6846 25.6102 83.7053 26.4751Z" fill="#32317F"/>
<path d="M109.614 19.5448C109.904 19.7952 110.101 20.0341 110.204 20.2617C110.307 20.4666 110.318 20.7055 110.235 20.9787C110.152 21.229 109.966 21.5363 109.677 21.9004L99.8718 35.1807C99.6029 35.522 99.365 35.7496 99.1582 35.8634C98.9513 36 98.7445 36.0341 98.5376 35.9659C98.3515 35.8976 98.1239 35.7496 97.855 35.522C97.5861 35.2717 97.4 35.0441 97.2965 34.8393C97.2138 34.6117 97.2138 34.3727 97.2965 34.1223C97.4 33.872 97.5861 33.5647 97.855 33.2006L107.66 19.9203C108.073 19.4196 108.404 19.1465 108.653 19.101C108.901 19.0327 109.221 19.1807 109.614 19.5448ZM97.9171 19.5448C98.186 19.3172 98.4135 19.1693 98.5997 19.101C98.8065 19.0327 99.003 19.0669 99.1892 19.2034C99.3754 19.34 99.5926 19.5789 99.8408 19.9203L109.645 33.2006C109.935 33.5647 110.121 33.872 110.204 34.1223C110.307 34.3727 110.307 34.6117 110.204 34.8393C110.121 35.0441 109.935 35.2717 109.645 35.522C109.397 35.7496 109.17 35.8976 108.963 35.9659C108.777 36.0341 108.58 36 108.373 35.8634C108.167 35.7496 107.929 35.522 107.66 35.1807L97.855 21.9004C97.5654 21.5363 97.3793 21.229 97.2965 20.9787C97.2138 20.7055 97.2138 20.4666 97.2965 20.2617C97.4 20.0341 97.6068 19.7952 97.9171 19.5448Z" fill="#32317F"/>
<path d="M119.734 35.8293C118.472 35.8293 117.469 35.6472 116.724 35.2831C115.979 34.9189 115.442 34.3272 115.111 33.5078C114.8 32.6885 114.645 31.6188 114.645 30.2987V22.5832L112.97 22.6174C112.556 22.6174 112.267 22.5036 112.101 22.276C111.936 22.0256 111.853 21.6273 111.853 21.0811C111.853 20.5576 111.946 20.1935 112.132 19.9886C112.318 19.761 112.618 19.6472 113.032 19.6472L114.645 19.6814V15.2091C114.645 14.8905 114.676 14.6174 114.738 14.3898C114.8 14.1622 114.925 13.9915 115.111 13.8777C115.297 13.7411 115.586 13.6728 115.979 13.6728C116.372 13.6728 116.672 13.7411 116.879 13.8777C117.086 13.9915 117.221 14.1622 117.283 14.3898C117.345 14.5946 117.376 14.8563 117.376 15.175V19.6814C117.707 19.6814 118.131 19.6814 118.648 19.6814C119.165 19.6586 119.61 19.6472 119.982 19.6472C120.437 19.6245 120.954 19.6245 121.533 19.6472C122.113 19.6472 122.557 19.6586 122.868 19.6814V15.2091C122.868 14.8905 122.899 14.6174 122.961 14.3898C123.023 14.1622 123.147 13.9915 123.333 13.8777C123.519 13.7411 123.809 13.6728 124.202 13.6728C124.595 13.6728 124.884 13.7411 125.071 13.8777C125.277 13.9915 125.412 14.1622 125.474 14.3898C125.557 14.5946 125.598 14.8563 125.598 15.175V19.7155L128.546 19.6472C128.815 19.6472 129.052 19.6814 129.259 19.7496C129.466 19.7952 129.632 19.9317 129.756 20.1593C129.88 20.3642 129.942 20.6828 129.942 21.1152C129.942 21.5477 129.88 21.8777 129.756 22.1053C129.652 22.3329 129.497 22.4808 129.29 22.5491C129.104 22.5946 128.866 22.6174 128.577 22.6174L125.598 22.5491V30.2987C125.598 31.0953 125.67 31.6757 125.815 32.0398C125.981 32.404 126.25 32.643 126.622 32.7568C127.015 32.8706 127.532 32.9275 128.173 32.9275C128.504 32.9275 128.773 32.9616 128.98 33.0299C129.187 33.0981 129.342 33.2347 129.445 33.4395C129.549 33.6444 129.601 33.9516 129.601 34.3613C129.601 34.7937 129.538 35.1238 129.414 35.3513C129.29 35.5562 129.125 35.6814 128.918 35.7269C128.711 35.7952 128.473 35.8293 128.204 35.8293C126.922 35.8293 125.888 35.6472 125.102 35.2831C124.316 34.9189 123.747 34.3272 123.395 33.5078C123.043 32.6885 122.868 31.6188 122.868 30.2987V22.5832C122.826 22.5832 122.63 22.5832 122.278 22.5832C121.947 22.5832 121.564 22.5946 121.13 22.6174C120.716 22.6174 120.354 22.6174 120.044 22.6174C119.672 22.6174 119.227 22.6174 118.71 22.6174C118.193 22.5946 117.748 22.5718 117.376 22.5491V30.2987C117.376 31.0953 117.438 31.6757 117.562 32.0398C117.686 32.404 117.914 32.643 118.244 32.7568C118.596 32.8706 119.093 32.9275 119.734 32.9275C120.044 32.9275 120.303 32.9616 120.509 33.0299C120.716 33.0981 120.871 33.2347 120.975 33.4395C121.099 33.6444 121.161 33.9516 121.161 34.3613C121.161 34.7937 121.099 35.1238 120.975 35.3513C120.851 35.5562 120.685 35.6814 120.478 35.7269C120.272 35.7952 120.023 35.8293 119.734 35.8293Z" fill="#32317F"/>
<path d="M139.371 36C138.129 36 137.023 35.7724 136.051 35.3172C135.078 34.862 134.251 34.2475 133.568 33.4737C132.907 32.6771 132.4 31.7667 132.048 30.7425C131.696 29.7183 131.521 28.6145 131.521 27.431C131.521 25.8606 131.852 24.4609 132.514 23.2319C133.175 22.0028 134.086 21.0356 135.244 20.33C136.423 19.6017 137.768 19.2376 139.278 19.2376C140.312 19.2376 141.232 19.4196 142.039 19.7838C142.866 20.1252 143.57 20.5917 144.149 21.1835C144.728 21.7752 145.173 22.4353 145.483 23.1636C145.793 23.8919 145.948 24.6202 145.948 25.3485C145.948 26.5092 145.7 27.3286 145.204 27.8065C144.707 28.2617 144.097 28.4893 143.373 28.4893H134.406C134.385 29.4907 134.623 30.3556 135.12 31.0839C135.637 31.7895 136.278 32.3357 137.044 32.7226C137.83 33.1095 138.616 33.303 139.402 33.303C139.981 33.303 140.477 33.2688 140.891 33.2006C141.305 33.1323 141.667 33.0413 141.977 32.9275C142.287 32.8137 142.556 32.6999 142.784 32.5861C143.011 32.4723 143.208 32.3585 143.373 32.2447C143.559 32.1309 143.735 32.0512 143.901 32.0057C144.087 31.9602 144.263 31.9829 144.428 32.074C144.614 32.1422 144.759 32.2902 144.862 32.5178C144.987 32.6999 145.069 32.8706 145.111 33.0299C145.152 33.1892 145.173 33.3599 145.173 33.542C145.173 33.8606 144.925 34.2134 144.428 34.6003C143.932 34.9872 143.239 35.3172 142.349 35.5903C141.48 35.8634 140.488 36 139.371 36ZM134.406 26.4751H142.194C142.587 26.4751 142.877 26.4182 143.063 26.3044C143.27 26.1906 143.373 25.8834 143.373 25.3826C143.373 24.7454 143.197 24.1764 142.846 23.6757C142.494 23.1522 142.008 22.7312 141.387 22.4125C140.788 22.0939 140.095 21.9346 139.309 21.9346C138.398 21.9346 137.561 22.1394 136.795 22.5491C136.051 22.936 135.461 23.4708 135.027 24.1536C134.592 24.8364 134.385 25.6102 134.406 26.4751Z" fill="#32317F"/>
<path d="M153.738 36C153.241 36 152.724 35.9431 152.186 35.8293C151.648 35.7155 151.121 35.5562 150.604 35.3513C150.107 35.1238 149.663 34.862 149.27 34.5661C148.897 34.2703 148.618 33.9403 148.432 33.5761C148.328 33.3485 148.266 33.1437 148.246 32.9616C148.225 32.7568 148.256 32.5633 148.339 32.3812C148.421 32.1991 148.546 32.0171 148.711 31.835C148.918 31.5619 149.125 31.4367 149.332 31.4595C149.538 31.4595 149.797 31.6074 150.107 31.9033C150.335 32.0626 150.604 32.2447 150.914 32.4495C151.224 32.6316 151.545 32.8023 151.876 32.9616C152.207 33.0982 152.538 33.2233 152.869 33.3371C153.22 33.4282 153.562 33.4737 153.893 33.4737C154.844 33.4737 155.61 33.2802 156.189 32.8933C156.768 32.4836 157.057 31.9488 157.057 31.2888C157.057 30.9018 156.985 30.5718 156.84 30.2987C156.695 30.0256 156.499 29.798 156.251 29.6159C156.003 29.4111 155.723 29.2404 155.413 29.1038C155.103 28.9673 154.751 28.8421 154.358 28.7283C153.986 28.5917 153.613 28.4666 153.241 28.3528C152.683 28.1935 152.134 28.0114 151.597 27.8065C151.059 27.6017 150.573 27.34 150.138 27.0213C149.704 26.6799 149.352 26.2589 149.083 25.7582C148.815 25.2347 148.68 24.5747 148.68 23.7781C148.68 22.8449 148.897 22.037 149.332 21.3542C149.766 20.6714 150.376 20.1479 151.162 19.7838C151.948 19.3969 152.869 19.2034 153.924 19.2034C154.379 19.2034 154.803 19.2376 155.196 19.3058C155.589 19.3741 155.961 19.4879 156.313 19.6472C156.685 19.7838 157.037 19.9545 157.368 20.1593C157.699 20.3414 158.019 20.569 158.33 20.8421C158.702 21.1152 158.898 21.4111 158.919 21.7297C158.94 22.0484 158.826 22.3784 158.578 22.7198C158.392 23.0156 158.185 23.2091 157.957 23.3001C157.73 23.3684 157.502 23.3001 157.275 23.0953C156.944 22.8222 156.592 22.5832 156.22 22.3784C155.847 22.1735 155.465 22.0028 155.072 21.8663C154.679 21.7297 154.275 21.6614 153.862 21.6614C153.345 21.6614 152.879 21.7525 152.465 21.9346C152.072 22.0939 151.762 22.3442 151.535 22.6856C151.328 23.0043 151.224 23.3684 151.224 23.7781C151.224 24.1422 151.307 24.4381 151.473 24.6657C151.659 24.8933 151.886 25.0868 152.155 25.2461C152.445 25.4054 152.776 25.5533 153.148 25.6899C153.541 25.8037 153.944 25.9175 154.358 26.0313C154.958 26.1906 155.568 26.3841 156.189 26.6117C156.83 26.8165 157.399 27.101 157.895 27.4651C158.412 27.8065 158.826 28.2731 159.136 28.8649C159.467 29.4339 159.633 30.1963 159.633 31.1522C159.633 32.6543 159.095 33.8378 158.019 34.7027C156.944 35.5676 155.516 36 153.738 36Z" fill="#32317F"/>
<path d="M169.262 35.8293C168.29 35.8293 167.463 35.7269 166.78 35.522C166.118 35.3172 165.57 34.9986 165.136 34.5661C164.701 34.1337 164.391 33.5761 164.205 32.8933C164.019 32.1878 163.926 31.3229 163.926 30.2987V15.2091C163.926 14.8905 163.957 14.6174 164.019 14.3898C164.081 14.1622 164.205 13.9915 164.391 13.8777C164.577 13.7411 164.867 13.6728 165.26 13.6728C165.653 13.6728 165.953 13.7411 166.16 13.8777C166.367 13.9915 166.501 14.1622 166.563 14.3898C166.625 14.5946 166.656 14.8563 166.656 15.175V30.2987C166.656 30.8905 166.698 31.3684 166.78 31.7326C166.884 32.074 167.028 32.3357 167.215 32.5178C167.421 32.6999 167.69 32.8137 168.021 32.8592C168.352 32.9047 168.756 32.9275 169.231 32.9275C169.562 32.9275 169.831 32.9616 170.038 33.0299C170.245 33.0981 170.4 33.2347 170.504 33.4395C170.607 33.6444 170.659 33.9516 170.659 34.3613C170.659 34.7937 170.597 35.1238 170.473 35.3513C170.369 35.5562 170.204 35.6814 169.976 35.7269C169.769 35.7952 169.531 35.8293 169.262 35.8293ZM162.312 19.6814L165.291 19.7155L169.604 19.6472C169.893 19.6472 170.142 19.6814 170.348 19.7496C170.555 19.7952 170.71 19.9317 170.814 20.1593C170.938 20.3642 171 20.6828 171 21.1152C171 21.5477 170.948 21.8777 170.845 22.1053C170.741 22.3101 170.586 22.4467 170.379 22.5149C170.173 22.5832 169.924 22.6174 169.635 22.6174L165.384 22.5491L162.25 22.5832C161.816 22.5832 161.516 22.4694 161.35 22.2418C161.206 22.0142 161.133 21.6387 161.133 21.1152C161.133 20.6145 161.226 20.2504 161.412 20.0228C161.599 19.7952 161.899 19.6814 162.312 19.6814Z" fill="#32317F"/>
<defs>
<clipPath id="clip0_413_2528">
<rect width="35.7447" height="36.2553" fill="white" transform="translate(6.12793 5.617)"/>
</clipPath>
</defs>
</svg>
