<svg width="308" height="61" viewBox="0 0 308 61" fill="none" xmlns="http://www.w3.org/2000/svg">
<path d="M3.698 60.028C2.72333 60.028 1.94933 59.856 1.376 59.512C0.86 59.168 0.487333 58.7093 0.258 58.136C0.086 57.5053 0 56.7887 0 55.986V3.612C0 2.86667 0.114666 2.236 0.344 1.72C0.573333 1.204 0.974667 0.802663 1.548 0.515997C2.17867 0.171998 3.03867 0 4.128 0C5.38933 0 6.278 0.114666 6.794 0.344C7.31 0.573334 7.826 0.974668 8.342 1.548L40.678 47.3V3.612C40.678 2.86667 40.764 2.236 40.936 1.72C41.1653 1.204 41.5667 0.802663 42.14 0.515997C42.7133 0.171998 43.5447 0 44.634 0C45.666 0 46.44 0.171998 46.956 0.515997C47.5293 0.859996 47.902 1.34733 48.074 1.978C48.3033 2.55133 48.418 3.21067 48.418 3.956V56.072C48.418 56.8173 48.2747 57.5053 47.988 58.136C47.7587 58.7093 47.3287 59.168 46.698 59.512C46.1247 59.856 45.2933 60.028 44.204 60.028C43.2867 60.028 42.5127 59.9133 41.882 59.684C41.3087 59.4547 40.764 59.0247 40.248 58.394L7.74 12.986V56.072C7.74 56.8173 7.62533 57.5053 7.396 58.136C7.16667 58.7093 6.76533 59.168 6.192 59.512C5.61867 59.856 4.78733 60.028 3.698 60.028Z" fill="#32317F"/>
<path d="M79.4647 60.458C76.0247 60.458 72.9573 59.8847 70.2627 58.738C67.568 57.5913 65.2747 56.0433 63.3827 54.094C61.548 52.0873 60.1433 49.794 59.1687 47.214C58.194 44.634 57.7067 41.8533 57.7067 38.872C57.7067 34.916 58.624 31.39 60.4587 28.294C62.2933 25.198 64.816 22.7613 68.0267 20.984C71.2947 19.1493 75.0213 18.232 79.2067 18.232C82.0733 18.232 84.6247 18.6907 86.8607 19.608C89.154 20.468 91.1033 21.6433 92.7087 23.134C94.314 24.6247 95.5467 26.2873 96.4067 28.122C97.2667 29.9567 97.6967 31.7913 97.6967 33.626C97.6967 36.55 97.0087 38.614 95.6327 39.818C94.2567 40.9647 92.5653 41.538 90.5587 41.538H65.7047C65.6473 44.0607 66.3067 46.2393 67.6827 48.074C69.116 49.8513 70.8933 51.2273 73.0147 52.202C75.1933 53.1767 77.372 53.664 79.5507 53.664C81.156 53.664 82.532 53.578 83.6787 53.406C84.8253 53.234 85.8287 53.0047 86.6887 52.718C87.5487 52.4313 88.294 52.1447 88.9247 51.858C89.5553 51.5713 90.1 51.2847 90.5587 50.998C91.0747 50.7113 91.562 50.5107 92.0207 50.396C92.5367 50.2813 93.024 50.3387 93.4827 50.568C93.9987 50.74 94.4 51.1127 94.6867 51.686C95.0307 52.1447 95.26 52.5747 95.3747 52.976C95.4893 53.3773 95.5467 53.8073 95.5467 54.266C95.5467 55.0687 94.8587 55.9573 93.4827 56.932C92.1067 57.9067 90.186 58.738 87.7207 59.426C85.3127 60.114 82.5607 60.458 79.4647 60.458ZM65.7047 36.464H87.2907C88.38 36.464 89.1827 36.3207 89.6987 36.034C90.272 35.7473 90.5587 34.9733 90.5587 33.712C90.5587 32.1067 90.0713 30.6733 89.0967 29.412C88.122 28.0933 86.7747 27.0327 85.0547 26.23C83.392 25.4273 81.4713 25.026 79.2927 25.026C76.77 25.026 74.448 25.542 72.3267 26.574C70.2627 27.5487 68.6287 28.896 67.4247 30.616C66.2207 32.336 65.6473 34.2853 65.7047 36.464Z" fill="#32317F"/>
<path d="M137.518 19.006C138.321 19.6367 138.865 20.2387 139.152 20.812C139.439 21.328 139.467 21.93 139.238 22.618C139.009 23.2487 138.493 24.0227 137.69 24.94L110.514 58.394C109.769 59.254 109.109 59.8273 108.536 60.114C107.963 60.458 107.389 60.544 106.816 60.372C106.3 60.2 105.669 59.8273 104.924 59.254C104.179 58.6233 103.663 58.05 103.376 57.534C103.147 56.9607 103.147 56.3587 103.376 55.728C103.663 55.0973 104.179 54.3233 104.924 53.406L132.1 19.952C133.247 18.6907 134.164 18.0027 134.852 17.888C135.54 17.716 136.429 18.0887 137.518 19.006ZM105.096 19.006C105.841 18.4327 106.472 18.06 106.988 17.888C107.561 17.716 108.106 17.802 108.622 18.146C109.138 18.49 109.74 19.092 110.428 19.952L137.604 53.406C138.407 54.3233 138.923 55.0973 139.152 55.728C139.439 56.3587 139.439 56.9607 139.152 57.534C138.923 58.05 138.407 58.6233 137.604 59.254C136.916 59.8273 136.285 60.2 135.712 60.372C135.196 60.544 134.651 60.458 134.078 60.114C133.505 59.8273 132.845 59.254 132.1 58.394L104.924 24.94C104.121 24.0227 103.605 23.2487 103.376 22.618C103.147 21.93 103.147 21.328 103.376 20.812C103.663 20.2387 104.236 19.6367 105.096 19.006Z" fill="#32317F"/>
<path d="M165.566 60.028C162.069 60.028 159.288 59.5693 157.224 58.652C155.16 57.7347 153.669 56.244 152.752 54.18C151.892 52.116 151.462 49.4213 151.462 46.096V26.66L146.818 26.746C145.671 26.746 144.869 26.4593 144.41 25.886C143.951 25.2553 143.722 24.252 143.722 22.876C143.722 21.5573 143.98 20.64 144.496 20.124C145.012 19.5507 145.843 19.264 146.99 19.264L151.462 19.35V8.084C151.462 7.28133 151.548 6.59333 151.72 6.02C151.892 5.44667 152.236 5.01667 152.752 4.73C153.268 4.386 154.071 4.214 155.16 4.214C156.249 4.214 157.081 4.386 157.654 4.73C158.227 5.01667 158.6 5.44667 158.772 6.02C158.944 6.536 159.03 7.19533 159.03 7.998V19.35C159.947 19.35 161.123 19.35 162.556 19.35C163.989 19.2927 165.222 19.264 166.254 19.264C167.515 19.2067 168.949 19.2067 170.554 19.264C172.159 19.264 173.392 19.2927 174.252 19.35V8.084C174.252 7.28133 174.338 6.59333 174.51 6.02C174.682 5.44667 175.026 5.01667 175.542 4.73C176.058 4.386 176.861 4.214 177.95 4.214C179.039 4.214 179.842 4.386 180.358 4.73C180.931 5.01667 181.304 5.44667 181.476 6.02C181.705 6.536 181.82 7.19533 181.82 7.998V19.436L189.99 19.264C190.735 19.264 191.395 19.35 191.968 19.522C192.541 19.6367 193 19.9807 193.344 20.554C193.688 21.07 193.86 21.8727 193.86 22.962C193.86 24.0513 193.688 24.8827 193.344 25.456C193.057 26.0293 192.627 26.402 192.054 26.574C191.538 26.6887 190.879 26.746 190.076 26.746L181.82 26.574V46.096C181.82 48.1027 182.021 49.5647 182.422 50.482C182.881 51.3993 183.626 52.0013 184.658 52.288C185.747 52.5747 187.181 52.718 188.958 52.718C189.875 52.718 190.621 52.804 191.194 52.976C191.767 53.148 192.197 53.492 192.484 54.008C192.771 54.524 192.914 55.298 192.914 56.33C192.914 57.4193 192.742 58.2507 192.398 58.824C192.054 59.34 191.595 59.6553 191.022 59.77C190.449 59.942 189.789 60.028 189.044 60.028C185.489 60.028 182.623 59.5693 180.444 58.652C178.265 57.7347 176.689 56.244 175.714 54.18C174.739 52.116 174.252 49.4213 174.252 46.096V26.66C174.137 26.66 173.593 26.66 172.618 26.66C171.701 26.66 170.64 26.6887 169.436 26.746C168.289 26.746 167.286 26.746 166.426 26.746C165.394 26.746 164.161 26.746 162.728 26.746C161.295 26.6887 160.062 26.6313 159.03 26.574V46.096C159.03 48.1027 159.202 49.5647 159.546 50.482C159.89 51.3993 160.521 52.0013 161.438 52.288C162.413 52.5747 163.789 52.718 165.566 52.718C166.426 52.718 167.143 52.804 167.716 52.976C168.289 53.148 168.719 53.492 169.006 54.008C169.35 54.524 169.522 55.298 169.522 56.33C169.522 57.4193 169.35 58.2507 169.006 58.824C168.662 59.34 168.203 59.6553 167.63 59.77C167.057 59.942 166.369 60.028 165.566 60.028Z" fill="#32317F"/>
<path d="M219.994 60.458C216.554 60.458 213.487 59.8847 210.792 58.738C208.097 57.5913 205.804 56.0433 203.912 54.094C202.077 52.0873 200.673 49.794 199.698 47.214C198.723 44.634 198.236 41.8533 198.236 38.872C198.236 34.916 199.153 31.39 200.988 28.294C202.823 25.198 205.345 22.7613 208.556 20.984C211.824 19.1493 215.551 18.232 219.736 18.232C222.603 18.232 225.154 18.6907 227.39 19.608C229.683 20.468 231.633 21.6433 233.238 23.134C234.843 24.6247 236.076 26.2873 236.936 28.122C237.796 29.9567 238.226 31.7913 238.226 33.626C238.226 36.55 237.538 38.614 236.162 39.818C234.786 40.9647 233.095 41.538 231.088 41.538H206.234C206.177 44.0607 206.836 46.2393 208.212 48.074C209.645 49.8513 211.423 51.2273 213.544 52.202C215.723 53.1767 217.901 53.664 220.08 53.664C221.685 53.664 223.061 53.578 224.208 53.406C225.355 53.234 226.358 53.0047 227.218 52.718C228.078 52.4313 228.823 52.1447 229.454 51.858C230.085 51.5713 230.629 51.2847 231.088 50.998C231.604 50.7113 232.091 50.5107 232.55 50.396C233.066 50.2813 233.553 50.3387 234.012 50.568C234.528 50.74 234.929 51.1127 235.216 51.686C235.56 52.1447 235.789 52.5747 235.904 52.976C236.019 53.3773 236.076 53.8073 236.076 54.266C236.076 55.0687 235.388 55.9573 234.012 56.932C232.636 57.9067 230.715 58.738 228.25 59.426C225.842 60.114 223.09 60.458 219.994 60.458ZM206.234 36.464H227.82C228.909 36.464 229.712 36.3207 230.228 36.034C230.801 35.7473 231.088 34.9733 231.088 33.712C231.088 32.1067 230.601 30.6733 229.626 29.412C228.651 28.0933 227.304 27.0327 225.584 26.23C223.921 25.4273 222.001 25.026 219.822 25.026C217.299 25.026 214.977 25.542 212.856 26.574C210.792 27.5487 209.158 28.896 207.954 30.616C206.75 32.336 206.177 34.2853 206.234 36.464Z" fill="#32317F"/>
<path d="M259.815 60.458C258.439 60.458 257.006 60.3147 255.515 60.028C254.025 59.7413 252.563 59.34 251.129 58.824C249.753 58.2507 248.521 57.5913 247.431 56.846C246.399 56.1007 245.625 55.2693 245.109 54.352C244.823 53.7787 244.651 53.2627 244.593 52.804C244.536 52.288 244.622 51.8007 244.851 51.342C245.081 50.8833 245.425 50.4247 245.883 49.966C246.457 49.278 247.03 48.9627 247.603 49.02C248.177 49.02 248.893 49.3927 249.753 50.138C250.384 50.5393 251.129 50.998 251.989 51.514C252.849 51.9727 253.738 52.4027 254.655 52.804C255.573 53.148 256.49 53.4633 257.407 53.75C258.382 53.9793 259.328 54.094 260.245 54.094C262.883 54.094 265.004 53.6067 266.609 52.632C268.215 51.6 269.017 50.2527 269.017 48.59C269.017 47.6153 268.817 46.784 268.415 46.096C268.014 45.408 267.469 44.8347 266.781 44.376C266.093 43.86 265.319 43.43 264.459 43.086C263.599 42.742 262.625 42.4267 261.535 42.14C260.503 41.796 259.471 41.4807 258.439 41.194C256.891 40.7927 255.372 40.334 253.881 39.818C252.391 39.302 251.043 38.6427 249.839 37.84C248.635 36.98 247.661 35.9193 246.915 34.658C246.17 33.3393 245.797 31.6767 245.797 29.67C245.797 27.3193 246.399 25.284 247.603 23.564C248.807 21.844 250.499 20.5253 252.677 19.608C254.856 18.6333 257.407 18.146 260.331 18.146C261.593 18.146 262.768 18.232 263.857 18.404C264.947 18.576 265.979 18.8627 266.953 19.264C267.985 19.608 268.96 20.038 269.877 20.554C270.795 21.0127 271.683 21.586 272.543 22.274C273.575 22.962 274.12 23.7073 274.177 24.51C274.235 25.3127 273.919 26.144 273.231 27.004C272.715 27.7493 272.142 28.2367 271.511 28.466C270.881 28.638 270.25 28.466 269.619 27.95C268.702 27.262 267.727 26.66 266.695 26.144C265.663 25.628 264.603 25.198 263.513 24.854C262.424 24.51 261.306 24.338 260.159 24.338C258.726 24.338 257.436 24.5673 256.289 25.026C255.2 25.4273 254.34 26.058 253.709 26.918C253.136 27.7207 252.849 28.638 252.849 29.67C252.849 30.5873 253.079 31.3327 253.537 31.906C254.053 32.4793 254.684 32.9667 255.429 33.368C256.232 33.7693 257.149 34.142 258.181 34.486C259.271 34.7727 260.389 35.0593 261.535 35.346C263.198 35.7473 264.889 36.2347 266.609 36.808C268.387 37.324 269.963 38.0407 271.339 38.958C272.773 39.818 273.919 40.9933 274.779 42.484C275.697 43.9173 276.155 45.838 276.155 48.246C276.155 52.03 274.665 55.0113 271.683 57.19C268.702 59.3687 264.746 60.458 259.815 60.458Z" fill="#32317F"/>
<path d="M302.846 60.028C300.152 60.028 297.858 59.77 295.966 59.254C294.132 58.738 292.612 57.9353 291.408 56.846C290.204 55.7567 289.344 54.352 288.828 52.632C288.312 50.8547 288.054 48.676 288.054 46.096V8.084C288.054 7.28133 288.14 6.59333 288.312 6.02C288.484 5.44667 288.828 5.01667 289.344 4.73C289.86 4.386 290.663 4.214 291.752 4.214C292.842 4.214 293.673 4.386 294.246 4.73C294.82 5.01667 295.192 5.44667 295.364 6.02C295.536 6.536 295.622 7.19533 295.622 7.998V46.096C295.622 47.5867 295.737 48.7907 295.966 49.708C296.253 50.568 296.654 51.2273 297.17 51.686C297.744 52.1447 298.489 52.4313 299.406 52.546C300.324 52.6607 301.442 52.718 302.76 52.718C303.678 52.718 304.423 52.804 304.996 52.976C305.57 53.148 306 53.492 306.286 54.008C306.573 54.524 306.716 55.298 306.716 56.33C306.716 57.4193 306.544 58.2507 306.2 58.824C305.914 59.34 305.455 59.6553 304.824 59.77C304.251 59.942 303.592 60.028 302.846 60.028ZM283.582 19.35L291.838 19.436L303.792 19.264C304.595 19.264 305.283 19.35 305.856 19.522C306.43 19.6367 306.86 19.9807 307.146 20.554C307.49 21.07 307.662 21.8727 307.662 22.962C307.662 24.0513 307.519 24.8827 307.232 25.456C306.946 25.972 306.516 26.316 305.942 26.488C305.369 26.66 304.681 26.746 303.878 26.746L292.096 26.574L283.41 26.66C282.206 26.66 281.375 26.3733 280.916 25.8C280.515 25.2267 280.314 24.2807 280.314 22.962C280.314 21.7007 280.572 20.7833 281.088 20.21C281.604 19.6367 282.436 19.35 283.582 19.35Z" fill="#32317F"/>
</svg>
