<svg width="207" height="391" viewBox="0 0 207 391" fill="none" xmlns="http://www.w3.org/2000/svg">
<path d="M16.4999 180.458C34.7084 165.137 58.8376 158.647 78.2534 159.931C96.8469 161.164 119.223 170.395 119.848 193.802C120.078 202.329 115.568 212.176 106.628 213.194C98.3227 214.145 93.6549 206.866 95.1681 197.852C99.2533 173.504 129.768 166.025 145.755 167.395C155.865 168.254 165.194 171.925 172.74 178.041C179.737 183.716 186.739 192.133 188.211 202.524C188.422 204.02 186.111 205.336 185.474 204.128C182.092 197.658 179.413 191.091 174.585 185.878C169.576 180.467 163.293 176.478 156.359 174.053C142.595 169.237 122.529 169.868 107.907 182.334C100.159 188.943 93.0222 205.389 103.335 209.016C107.514 210.483 112.882 208.376 115.193 202.848C117.298 197.803 116.666 192.084 115.42 187.765C110.346 170.166 91.3974 163.758 75.0279 163.041C65.7664 162.638 56.0958 164.036 46.4934 167.12C36.2151 170.419 26.8856 175.934 17.2335 182.019C16.2905 182.61 15.5974 181.215 16.4999 180.458Z" fill="#7727DA"/>
<path d="M11.4695 184.319C28.5703 163.349 53.4345 153.634 74.6781 156.222C84.9017 157.469 94.2814 161.15 102.592 166.483C111.07 171.929 120.156 179.185 124.032 189.617C126.744 196.89 126.478 211.402 116.238 215.479C107.229 219.073 96.5827 213.349 94.1062 204.835C91.3323 195.298 98.1582 183.694 106.494 177.442C116.439 169.981 128.714 167.888 139.097 167.767C161.828 167.507 181.953 179.107 192.242 199.103C193.221 201.011 190.296 203.808 189.275 201.887C181.669 187.488 169.194 177.596 153.93 173.607C146.153 171.573 137.68 171.136 129.076 172.477C119.223 174.017 107.263 177.667 100.433 188.342C92.8935 200.126 98.5508 210.237 108.247 212.382C113.903 213.633 119.92 211.821 121.92 203.851C123.545 197.384 121.4 191.272 118.576 186.785C109.519 172.418 92.5278 162.795 76.0072 160.055C55.2972 156.622 30.4056 164.917 13.1546 185.575C12.0445 186.901 10.3531 185.686 11.4695 184.319Z" fill="#7727DA"/>
<path d="M157.54 198.27C161.515 197.723 165.509 198.003 169.451 197.959C171.313 197.939 173.182 197.912 175.048 197.899C175.911 197.891 180.355 198.596 180.918 197.555C181.211 197.019 179.14 191.422 178.914 190.648C178.248 188.348 177.581 186.048 176.91 183.741C175.611 179.25 173.356 174.269 173.276 169.157C173.246 167.328 174.772 166.143 175.637 167.41C177.247 169.754 177.841 173.081 178.71 176.147C179.693 179.611 180.67 183.082 181.653 186.546C182.557 189.757 185.832 196.367 183.818 200.33C181.899 204.114 176.394 202.045 173.929 201.991C168.395 201.872 162.65 202.29 157.222 201.454C155.798 201.237 156.104 198.456 157.556 198.264L157.54 198.27Z" fill="#7727DA"/>
<path d="M160.709 196.348C164.941 196.939 168.987 199.21 173.078 200.509C177.825 202.008 182.659 203.312 187.61 203.797C186.985 205.01 186.355 206.229 185.731 207.442C184.131 201.543 182.355 195.772 180.337 190.196C178.38 184.774 175.23 179.721 173.935 173.856C173.559 172.151 175.101 169.622 176.271 170.988C179.389 174.628 181.32 181.038 183.18 186.107C185.421 192.199 187.324 198.528 188.969 205.072C189.465 207.05 188.079 209.018 186.663 208.629C181.948 207.32 177.205 206.223 172.558 204.6C168.381 203.139 163.604 201.829 160.021 198.709C159.349 198.119 159.813 196.238 160.702 196.37L160.709 196.348Z" fill="#7727DA"/>
<path d="M163.355 197.846C173.731 201.472 184.089 205.185 194.508 208.646C193.745 209.822 192.988 210.992 192.226 212.168C190.919 205.329 189.573 198.526 187.903 191.906C186.361 185.81 183.856 179.887 183.008 173.418C182.739 171.376 184.854 169.99 185.694 171.433C188.645 176.479 190.019 183.993 191.532 190.263C193.117 196.823 194.504 203.526 195.544 210.389C195.812 212.156 194.261 213.783 193.156 213.322C182.949 209.097 172.675 205.116 162.42 201.064C161.006 200.504 161.936 197.328 163.356 197.831L163.355 197.846Z" fill="#7727DA"/>
</svg>
